<?xml version="1.0" encoding="UTF-8" standalone="no"?>
<svg width="120px" height="75px" viewBox="0 0 120 75" version="1.1" xmlns="http://www.w3.org/2000/svg" xmlns:xlink="http://www.w3.org/1999/xlink" xmlns:sketch="http://www.bohemiancoding.com/sketch/ns">
    <!-- Generator: Sketch 3.0.3 (7892) - http://www.bohemiancoding.com/sketch -->
    <title>Frame</title>
    <desc>Created with Sketch.</desc>
    <defs></defs>
    <g id="Page-1" stroke="none" stroke-width="1" fill="none" fill-rule="evenodd" sketch:type="MSPage">
        <g id="Artboard-1" sketch:type="MSArtboardGroup" stroke="#979797" fill="#D8D8D8">
            <path d="M20.0052665,0 C18.3791954,0 16.6469537,4.93817043 15.0208826,4.93817043 C13.355375,4.93817043 11.6565917,0 9.9910841,0 L7.99251332,2.32402292e-17 C3.5783701,1.0405005e-17 -1.10510221e-11,3.59110768 -2.45661599e-11,7.99427148 L-1.90309069e-10,61.9924763 C-2.03860887e-10,66.4075905 3.57964453,69.9867477 8.00085735,69.9867477 L9.99108388,69.9867477 C11.4492812,69.9867477 12.8031198,75 15.0208824,75 C17.2657563,75 18.516386,69.9867477 20.0332725,69.9867477 L112.033197,69.9867477 C116.45437,69.9867477 120.036467,66.3956401 120.034049,61.9924763 L120.004391,7.99427148 C120.001966,3.57915726 116.413103,0 112.008368,0 L20.0052665,0 Z M24.9400187,15.0226021 C22.7417358,15.0226021 22.2086591,10 20.010376,10 L10,10 L10,50.0010948 L20.010376,50.0010948 C22.0969497,50.0010948 22.9134259,55.0315399 25,55.0315399 C27.0970553,55.0315399 27.897085,50.0010948 29.9941406,50.0010948 L110,51.4085931 L110,10 L29.9941406,10 C27.9694009,10 26.9647583,15.0226021 24.9400187,15.0226021 Z" id="Rectangle-1" sketch:type="MSShapeGroup"></path>
        </g>
    </g>
</svg>