<?xml version="1.0" standalone="no"?>
<svg width="320px" height="320px" version="1.1" xmlns="http://www.w3.org/2000/svg">
  <path d="M10 20
           l 10 0
           l 0 10
           l 10 -10
           l 100 0
           l 0 100
           l -100 0
           l -10 10
           l 0 -10
           l -10 0
           Z" stroke="black" stroke-width="2" fill-opacity="0.5"/>
  <path d="M0 0
           l 10 0
           l 0 10
           l 10 -10
           l 140 0
           l 0 20
           l -10 10
           l 0 -10
           l -10 0
           l -110 0
           l -10 10
           l 0 -10
           l -10 0
           l 0 120
           l 140 0
           l 0 20
           l -130 0
           l -10 10
           l 0 -10
           l -10 0
           Z" stroke="black" stroke-width="1" fill-opacity="0.5"/>
</svg>